<?xml version="1.0" encoding="UTF-8" standalone="no"?>
<!DOCTYPE svg PUBLIC "-//W3C//DTD SVG 1.1//EN" "http://www.w3.org/Graphics/SVG/1.1/DTD/svg11.dtd">
<svg xmlns="http://www.w3.org/2000/svg" version="1.1" viewBox="0.00 0.00 24.00 24.00">
<g fill="#67e8f9">
<path d="
  M 16.26 3.36
  Q 16.73 3.61 17.24 3.53
  Q 17.97 3.40 17.73 4.10
  Q 17.45 4.96 16.71 5.17
  Q 16.20 5.30 15.42 4.92
  Q 11.43 2.97 7.73 5.17
  Q 7.31 5.42 6.97 5.06
  L 6.43 4.49
  Q 6.11 4.15 6.48 3.88
  Q 9.74 1.46 13.35 2.23
  Q 14.28 2.43 15.19 2.47
  Q 15.55 2.49 15.79 2.76
  Q 15.88 2.86 15.93 2.99
  Q 16.03 3.23 16.26 3.36
  Z"
/>
<path d="
  M 3.63 6.42
  A 0.40 0.40 0.0 0 1 4.23 6.29
  L 5.05 6.91
  A 0.76 0.75 -57.1 0 1 5.25 7.87
  Q 2.82 12.34 5.16 16.27
  Q 5.41 16.69 5.06 17.03
  L 4.51 17.55
  Q 4.10 17.94 3.78 17.47
  Q 0.39 12.49 3.63 6.42
  Z"
/>
<path d="
  M 20.48 16.53
  L 20.54 17.37
  Q 20.60 18.11 19.92 17.81
  Q 19.06 17.44 18.84 16.69
  Q 18.70 16.19 19.07 15.44
  Q 21.06 11.42 18.76 7.57
  A 0.39 0.38 53.9 0 1 18.83 7.08
  L 19.73 6.28
  Q 19.91 6.12 20.06 6.32
  Q 22.51 9.74 21.80 13.34
  Q 21.61 14.26 21.52 15.15
  Q 21.52 15.17 21.52 15.20
  Q 21.38 15.94 20.77 16.11
  Q 20.45 16.20 20.48 16.53
  Z"
/>
<circle cx="12.00" cy="12.00" r="5.01"/>
<path d="
  M 7.66 18.68
  Q 12.42 21.20 16.32 18.83
  A 0.59 0.59 0.0 0 1 17.07 18.94
  L 17.55 19.49
  Q 17.95 19.94 17.44 20.26
  Q 12.07 23.67 6.16 20.20
  Q 6.04 20.13 6.11 20.02
  Q 6.55 19.27 7.30 18.71
  A 0.34 0.33 40.1 0 1 7.66 18.68
  Z"
/>
</g>
</svg>
