<?xml version="1.0" encoding="UTF-8" standalone="no"?>
<!DOCTYPE svg PUBLIC "-//W3C//DTD SVG 1.1//EN" "http://www.w3.org/Graphics/SVG/1.1/DTD/svg11.dtd">
<svg xmlns="http://www.w3.org/2000/svg" version="1.1" viewBox="0.00 0.00 24.00 24.00">
<g fill="#ffffff">
<path d="
  M 21.9898 17.6226
  A 2.33 2.33 0.0 0 1 19.6639 19.9567
  L 4.3839 19.9833
  A 2.33 2.33 0.0 0 1 2.0499 17.6574
  L 2.0302 6.3574
  A 2.33 2.33 0.0 0 1 4.3561 4.0233
  L 19.6361 3.9967
  A 2.33 2.33 0.0 0 1 21.9701 6.3226
  L 21.9898 17.6226
  Z
  M 20.0237 9.0879
  A 1.07 1.07 0.0 0 0 18.9574 8.0142
  L 5.0975 7.9658
  A 1.07 1.07 0.0 0 0 4.0238 9.0321
  L 3.9963 16.9121
  A 1.07 1.07 0.0 0 0 5.0626 17.9858
  L 18.9225 18.0342
  A 1.07 1.07 0.0 0 0 19.9962 16.9679
  L 20.0237 9.0879
  Z"
/>
<path d="
  M 8.39 12.64
  L 6.70 10.88
  Q 6.23 10.39 6.49 9.76
  L 6.62 9.44
  Q 6.96 8.63 7.57 9.25
  L 10.16 11.85
  A 1.74 1.73 47.0 0 1 10.08 14.37
  L 7.70 16.47
  Q 7.10 17.00 6.56 16.40
  L 6.38 16.18
  A 0.53 0.52 46.3 0 1 6.39 15.46
  L 8.39 13.42
  A 0.56 0.56 0.0 0 0 8.39 12.64
  Z"
/>
<rect x="-2.97" y="-0.92" transform="translate(15.01,15.92) rotate(1.8)" width="5.94" height="1.84" rx="0.76"/>
</g>
</svg>
