<?xml version="1.0" encoding="UTF-8" standalone="no"?>
<!DOCTYPE svg PUBLIC "-//W3C//DTD SVG 1.1//EN" "http://www.w3.org/Graphics/SVG/1.1/DTD/svg11.dtd">
<svg xmlns="http://www.w3.org/2000/svg" version="1.1" viewBox="0.00 0.00 24.00 24.00">
<path fill="#ffffff" d="
  M 6.94 15.99
  L 3.15 16.00
  A 1.13 1.13 0.0 0 1 2.02 14.87
  L 2.06 9.15
  A 1.13 1.13 0.0 0 1 3.19 8.03
  L 12.89 8.00
  A 1.13 1.13 0.0 0 0 14.01 6.89
  L 14.06 3.17
  A 1.13 1.13 0.0 0 1 15.18 2.06
  L 20.84 2.03
  A 1.13 1.13 0.0 0 1 21.97 3.16
  L 21.99 14.90
  A 1.13 1.13 0.0 0 1 20.82 16.03
  L 17.03 15.92
  A 1.13 1.13 0.0 0 0 15.86 17.09
  L 16.02 20.85
  A 1.13 1.13 0.0 0 1 14.88 22.02
  L 9.07 21.99
  A 1.13 1.13 0.0 0 1 7.95 20.82
  L 8.07 17.15
  A 1.13 1.13 0.0 0 0 6.94 15.99
  Z
  M 20.1171 5.2137
  A 1.17 1.17 0.0 0 0 18.9719 4.0195
  L 17.1523 3.9814
  A 1.17 1.17 0.0 0 0 15.9580 5.1266
  L 15.9229 6.8063
  A 1.17 1.17 0.0 0 0 17.0681 8.0005
  L 18.8877 8.0386
  A 1.17 1.17 0.0 0 0 20.0820 6.8934
  L 20.1171 5.2137
  Z
  M 8.0827 11.2273
  A 1.23 1.23 0.0 0 0 6.8570 9.9930
  L 5.1371 9.9870
  A 1.23 1.23 0.0 0 0 3.9028 11.2127
  L 3.8973 12.7927
  A 1.23 1.23 0.0 0 0 5.1230 14.0270
  L 6.8429 14.0330
  A 1.23 1.23 0.0 0 0 8.0772 12.8073
  L 8.0827 11.2273
  Z
  M 14.0320 11.0767
  A 1.16 1.16 0.0 0 0 12.8361 9.9537
  L 11.0970 10.0083
  A 1.16 1.16 0.0 0 0 9.9740 11.2042
  L 10.0280 12.9233
  A 1.16 1.16 0.0 0 0 11.2239 14.0463
  L 12.9630 13.9917
  A 1.16 1.16 0.0 0 0 14.0860 12.7958
  L 14.0320 11.0767
  Z
  M 20.0828 11.1762
  A 1.23 1.23 0.0 0 0 18.8273 9.9722
  L 17.0877 10.0087
  A 1.23 1.23 0.0 0 0 15.8837 11.2642
  L 15.9172 12.8638
  A 1.23 1.23 0.0 0 0 17.1727 14.0678
  L 18.9123 14.0313
  A 1.23 1.23 0.0 0 0 20.1163 12.7758
  L 20.0828 11.1762
  Z
  M 14.1192 17.3201
  A 1.27 1.27 0.0 0 0 12.8989 16.0022
  L 11.3001 15.9408
  A 1.27 1.27 0.0 0 0 9.9822 17.1611
  L 9.9208 18.7599
  A 1.27 1.27 0.0 0 0 11.1411 20.0778
  L 12.7399 20.1392
  A 1.27 1.27 0.0 0 0 14.0578 18.9189
  L 14.1192 17.3201
  Z"
/>
</svg>
