<?xml version="1.0" encoding="UTF-8" standalone="no"?>
<!DOCTYPE svg PUBLIC "-//W3C//DTD SVG 1.1//EN" "http://www.w3.org/Graphics/SVG/1.1/DTD/svg11.dtd">
<svg xmlns="http://www.w3.org/2000/svg" version="1.1" viewBox="0.00 0.00 24.00 24.00">
<g fill="#ffffff">
<path d="
  M 17.80 21.98
  L 6.16 21.97
  A 2.15 2.15 0.0 0 1 4.01 19.81
  L 4.11 4.19
  A 2.15 2.15 0.0 0 1 6.25 2.05
  L 13.15 2.02
  A 2.15 2.15 0.0 0 1 14.67 2.65
  L 19.39 7.32
  A 2.15 2.15 0.0 0 1 20.02 8.86
  L 19.95 19.84
  A 2.15 2.15 0.0 0 1 17.80 21.98
  Z
  M 14.33 5.23
  C 12.44 3.30 9.36 4.05 6.97 4.05
  Q 5.94 4.05 5.95 5.08
  L 6.03 19.26
  A 0.75 0.74 89.6 0 0 6.77 20.00
  L 17.25 20.00
  Q 18.00 20.00 18.00 19.25
  L 18.00 9.95
  Q 18.00 9.10 17.42 8.47
  Q 15.89 6.84 14.33 5.23
  Z"
/>
<circle cx="12.08" cy="12.02" r="1.83"/>
<path d="
  M 8.19 17.95
  A 0.14 0.14 0.0 0 1 8.05 17.81
  L 8.05 17.73
  A 3.39 2.72 0.4 0 1 11.46 15.04
  L 12.52 15.04
  A 3.39 2.72 0.4 0 1 15.89 17.79
  L 15.89 17.87
  A 0.14 0.14 0.0 0 1 15.75 18.01
  L 8.19 17.95
  Z"
/>
</g>
</svg>
